<svg width="63" height="63" viewBox="0 0 63 63" fill="none" xmlns="http://www.w3.org/2000/svg">
<circle cx="31.5" cy="31.5" r="31.5" fill="url(#paint0_linear_22_178)"/>
<path d="M44.7071 22.7071C45.0976 22.3166 45.0976 21.6834 44.7071 21.2929L38.3431 14.9289C37.9526 14.5384 37.3195 14.5384 36.9289 14.9289C36.5384 15.3195 36.5384 15.9526 36.9289 16.3431L42.5858 22L36.9289 27.6569C36.5384 28.0474 36.5384 28.6805 36.9289 29.0711C37.3195 29.4616 37.9526 29.4616 38.3431 29.0711L44.7071 22.7071ZM20 23L44 23L44 21L20 21L20 23Z" fill="black"/>
<path d="M19.2929 42.7071C18.9024 42.3166 18.9024 41.6834 19.2929 41.2929L25.6569 34.9289C26.0474 34.5384 26.6805 34.5384 27.0711 34.9289C27.4616 35.3195 27.4616 35.9526 27.0711 36.3431L21.4142 42L27.0711 47.6569C27.4616 48.0474 27.4616 48.6805 27.0711 49.0711C26.6805 49.4616 26.0474 49.4616 25.6569 49.0711L19.2929 42.7071ZM44 43L20 43L20 41L44 41L44 43Z" fill="black"/>
<defs>
<linearGradient id="paint0_linear_22_178" x1="8" y1="10.5" x2="50.5" y2="56.5" gradientUnits="userSpaceOnUse">
<stop stop-color="#8CB5FF"/>
<stop offset="1" stop-color="#FCCBD1"/>
</linearGradient>
</defs>
</svg>
