<svg width="113" height="113" viewBox="0 0 113 113" fill="none" xmlns="http://www.w3.org/2000/svg">
<g clip-path="url(#clip0_15_82)">
<path d="M40.5029 65.1933C45.489 73.8295 56.5571 76.7952 65.1933 71.8091C73.8295 66.823 76.7952 55.7549 71.8091 47.1187C66.823 38.4825 55.7549 35.5168 47.1187 40.5029C38.4825 45.489 35.5168 56.5571 40.5029 65.1933ZM52.1996 60.0235C53.3215 61.9667 55.8757 62.6511 57.8188 61.5292L60.8105 66.7109C55.8903 69.4076 49.7603 67.7651 47.0179 63.0152L52.1996 60.0235Z" fill="#8CB5FF"/>
<path d="M111.003 52.4164C104.895 44.8126 83.081 20.0067 56.156 20.0067C29.231 20.0067 7.41683 44.8126 1.30885 52.4164C-0.436284 54.5355 -0.436284 57.6518 1.30885 59.8956C7.41683 67.4994 29.231 92.3053 56.156 92.3053C83.081 92.3053 104.895 67.4994 111.003 59.8956C112.748 57.7765 112.748 54.6602 111.003 52.4164ZM56.156 82.3331C41.6963 82.3331 29.979 70.6157 29.979 56.156C29.979 41.6963 41.6963 29.979 56.156 29.979C70.6157 29.979 82.3331 41.6963 82.3331 56.156C82.3331 70.6157 70.6157 82.3331 56.156 82.3331Z" fill="#8CB5FF"/>
</g>
<defs>
<clipPath id="clip0_15_82">
<rect width="112.312" height="112.312" fill="white"/>
</clipPath>
</defs>
</svg>
