<svg width="113" height="113" viewBox="0 0 113 113" fill="none" xmlns="http://www.w3.org/2000/svg">
<path d="M103.887 56.8569L100.377 51.9434C100.026 51.2414 99.6751 50.5395 99.6751 49.8376C97.9203 37.2027 89.1461 27.0246 77.5641 22.813C80.0209 27.0246 81.4247 31.2362 82.1267 36.1498L85.2854 40.7124C89.848 47.0298 88.4441 55.804 82.1267 60.7176L81.4247 61.4195V69.1408C81.4247 76.5112 76.1602 82.4776 69.1408 83.5306V87.7422C69.1408 93.3577 64.2273 98.2712 58.6118 98.2712H49.1356V99.6751C49.1356 101.43 50.5395 103.185 52.6453 103.185H82.8286C84.5835 103.185 86.3383 101.43 86.3383 99.6751V88.4441H90.5499C94.7616 88.4441 98.2712 84.9344 98.2712 80.7228V70.1937L101.781 67.386C105.642 64.9292 106.344 60.3666 103.887 56.8569Z" fill="#F6AEFF"/>
<path d="M62.4725 88.0932V76.8622H66.6841C70.8957 76.8622 74.4054 73.3525 74.4054 69.1408V57.9098L77.9151 55.1021C81.0738 52.6453 81.7757 48.0827 79.319 44.573L75.8093 39.6595C75.4583 38.9575 75.1073 38.2556 75.1073 37.5537C72.6506 21.0581 58.2608 8.42325 41.4143 8.42325C32.2892 8.42325 23.5149 11.9329 16.8465 18.2504C10.5291 25.2697 7.01941 33.693 7.01941 42.8182C7.01941 54.4002 12.9859 65.2802 22.813 71.5976C24.2169 72.6505 25.2698 74.0544 25.2698 75.8092V88.0932C25.2698 90.199 26.6737 91.6028 28.7795 91.6028H58.9628C60.7176 91.6028 62.4725 89.848 62.4725 88.0932Z" fill="#F6AEFF"/>
</svg>
