<svg width="113" height="113" viewBox="0 0 113 113" fill="none" xmlns="http://www.w3.org/2000/svg">
<path fill-rule="evenodd" clip-rule="evenodd" d="M39.8876 16.8816C33.7913 14.8635 26.4771 16.3446 21.4126 21.4126C16.3447 26.4771 14.8636 33.7913 16.8816 39.8876C11.1433 42.7726 7.01941 48.9882 7.01941 56.155C7.01941 63.3218 11.1433 69.5374 16.8816 72.4224C14.8636 78.5187 16.3447 85.8329 21.4126 90.8974C26.4771 95.9654 33.7913 97.4465 39.8876 95.4284C42.7726 101.167 48.9883 105.291 56.155 105.291C63.3218 105.291 69.5375 101.167 72.4224 95.4284C78.5188 97.4465 85.8329 95.9654 90.8974 90.8974C95.9654 85.8329 97.4465 78.5187 95.4284 72.4224C101.167 69.5374 105.291 63.3218 105.291 56.155C105.291 48.9882 101.167 42.7726 95.4284 39.8876C97.4465 33.7913 95.9654 26.4771 90.8974 21.4126C85.8329 16.3446 78.5188 14.8635 72.4224 16.8816C69.5375 11.1432 63.3218 7.01937 56.155 7.01937C48.9883 7.01937 42.7726 11.1432 39.8876 16.8816ZM40.193 61.581L51.9188 73.3068C52.6348 74.0228 53.621 74.3948 54.6318 74.3282C55.6391 74.2615 56.5727 73.7631 57.1869 72.9594L76.4902 47.7598C77.6694 46.2226 77.3746 44.0185 75.8374 42.8392C74.3001 41.6635 72.096 41.9548 70.9168 43.492L54.0492 65.5118L45.1557 56.6183C43.7869 55.2495 41.5618 55.2495 40.193 56.6183C38.8242 57.9871 38.8242 60.2122 40.193 61.581Z" fill="#FCCBD1"/>
</svg>
