<svg width="234" height="48" viewBox="0 0 234 48" fill="none" xmlns="http://www.w3.org/2000/svg">
<rect width="230.714" height="34.8408" rx="12.7933" transform="matrix(0.99899 -0.0466245 0.0743822 0.997342 0.568359 11.889)" fill="#F1BDCD"/>
<path d="M81.0248 30.6882L76.6877 21.4968L76.6299 21.4993C76.7569 22.2368 76.8615 23.1151 76.9435 24.1344L77.4833 30.8413L76.3486 30.8904L75.5 20.3468L77.3503 20.2668L81.3966 28.8194L81.4544 28.8169L84.1297 19.9736L85.9655 19.8942L86.8141 30.4378L85.5854 30.4909L85.0387 23.6975C84.976 22.9186 84.9416 22.0709 84.9355 21.1545L84.8777 21.157L82.015 30.6453L81.0248 30.6882ZM98.4659 24.6293C98.6017 26.3168 98.2797 27.6623 97.4998 28.6658C96.7247 29.669 95.5759 30.2036 94.0533 30.2694C92.4969 30.3367 91.2566 29.9152 90.3324 29.0047C89.4125 28.0892 88.883 26.7661 88.7437 25.0352C88.6055 23.3189 88.9226 21.9711 89.6948 20.9921C90.4666 20.0083 91.633 19.4827 93.1942 19.4151C94.712 19.3495 95.936 19.779 96.8662 20.7037C97.7965 21.6284 98.3297 22.9369 98.4659 24.6293ZM90.0458 24.9934C90.1607 26.4213 90.5515 27.4924 91.2182 28.2065C91.8894 28.9157 92.8056 29.2451 93.9668 29.1949C95.1377 29.1442 95.9922 28.7382 96.5305 27.9768C97.0688 27.2153 97.2803 26.1182 97.165 24.6855C97.0508 23.2672 96.6656 22.2056 96.0093 21.5006C95.3574 20.7907 94.4485 20.4609 93.2824 20.5113C92.1115 20.562 91.2499 20.9707 90.6976 21.7376C90.1497 22.4994 89.9324 23.5847 90.0458 24.9934ZM106.992 26.75C107.066 27.6779 106.787 28.4161 106.155 28.9645C105.522 29.5129 104.627 29.8121 103.471 29.8621C102.218 29.9163 101.241 29.7969 100.541 29.504L100.446 28.3213C100.894 28.4852 101.378 28.609 101.897 28.6927C102.416 28.7764 102.927 28.8074 103.428 28.7857C104.247 28.7503 104.851 28.5698 105.241 28.2441C105.63 27.9137 105.802 27.4721 105.758 26.9192C105.728 26.5538 105.63 26.2589 105.462 26.0346C105.298 25.8053 105.035 25.5995 104.672 25.4174C104.314 25.2351 103.774 25.0341 103.05 24.8145C102.039 24.5061 101.302 24.1206 100.839 23.6582C100.381 23.1955 100.121 22.5772 100.059 21.8031C99.9935 20.9906 100.247 20.3307 100.821 19.8235C101.394 19.3162 102.184 19.0408 103.191 18.9973C104.241 18.9518 105.223 19.1024 106.136 19.4489L105.839 20.5328C104.937 20.2051 104.074 20.0591 103.25 20.0947C102.6 20.1228 102.103 20.2842 101.759 20.5789C101.415 20.8736 101.263 21.2686 101.303 21.7638C101.333 22.1292 101.424 22.4267 101.578 22.6565C101.732 22.8814 101.975 23.0856 102.309 23.269C102.647 23.4473 103.156 23.64 103.835 23.847C104.975 24.1933 105.771 24.5835 106.221 25.0175C106.677 25.4513 106.934 26.0288 106.992 26.75ZM112.631 29.3212L111.402 29.3744L110.641 19.9198L107.295 20.0645L107.207 18.9755L115.129 18.633L115.216 19.7219L111.87 19.8666L112.631 29.3212ZM127.518 21.18C127.604 22.2474 127.304 23.0853 126.618 23.6939C125.937 24.2975 124.917 24.6287 123.558 24.6875L122.315 24.7413L122.648 28.888L121.42 28.9411L120.571 18.3976L123.31 18.2791C125.951 18.1649 127.353 19.1319 127.518 21.18ZM122.23 23.6883L123.336 23.6405C124.425 23.5934 125.198 23.3839 125.657 23.0118C126.115 22.6398 126.313 22.0668 126.251 21.2927C126.195 20.5956 125.924 20.0862 125.439 19.7647C124.954 19.4431 124.227 19.3033 123.258 19.3452L121.885 19.4046L122.23 23.6883ZM139.085 22.8726C139.221 24.5601 138.899 25.9056 138.119 26.9091C137.344 27.9123 136.195 28.4469 134.672 28.5127C133.116 28.58 131.876 28.1585 130.951 27.248C130.031 26.3325 129.502 25.0094 129.363 23.2786C129.224 21.5622 129.541 20.2145 130.314 19.2354C131.085 18.2516 132.252 17.726 133.813 17.6584C135.331 17.5928 136.555 18.0223 137.485 18.947C138.415 19.8717 138.949 21.1802 139.085 22.8726ZM130.665 23.2367C130.78 24.6646 131.17 25.7357 131.837 26.4498C132.508 27.159 133.424 27.4884 134.586 27.4382C135.757 27.3876 136.611 26.9815 137.149 26.2201C137.688 25.4586 137.899 24.3616 137.784 22.9288C137.67 21.5105 137.285 20.4489 136.628 19.7439C135.976 19.034 135.067 18.7042 133.901 18.7546C132.73 18.8053 131.869 19.214 131.317 19.9809C130.769 20.7427 130.551 21.828 130.665 23.2367ZM147.972 20.2954C148.058 21.3628 147.758 22.2007 147.072 22.8094C146.391 23.4129 145.371 23.7441 144.012 23.8029L142.769 23.8567L143.102 28.0034L141.874 28.0566L141.025 17.513L143.764 17.3945C146.405 17.2803 147.807 18.2473 147.972 20.2954ZM142.684 22.8037L143.79 22.7559C144.879 22.7088 145.652 22.4993 146.111 22.1272C146.569 21.7552 146.767 21.1822 146.705 20.4081C146.649 19.711 146.378 19.2016 145.893 18.8801C145.408 18.5585 144.681 18.4187 143.712 18.4606L142.339 18.52L142.684 22.8037ZM157.923 16.7822L158.472 23.6045C158.569 24.8064 158.281 25.7669 157.609 26.4859C156.937 27.2049 155.965 27.5919 154.693 27.6469C153.421 27.7019 152.407 27.3984 151.653 26.7362C150.903 26.0739 150.48 25.137 150.382 23.9254L149.836 17.1319L151.064 17.0788L151.618 23.9588C151.689 24.8386 151.984 25.5037 152.504 25.9541C153.024 26.4044 153.751 26.6093 154.686 26.5689C155.577 26.5304 156.245 26.2651 156.689 25.7731C157.132 25.2763 157.318 24.5855 157.247 23.7009L156.694 16.8353L157.923 16.7822ZM161.576 27.2045L160.727 16.6609L161.956 16.6077L162.715 26.0407L167.377 25.8391L167.467 26.9497L161.576 27.2045ZM175.908 26.5846L174.323 23.288L170.088 23.4712L169.057 26.8809L167.813 26.9347L171.139 16.1672L172.172 16.1225L177.18 26.5296L175.908 26.5846ZM173.851 22.2012L172.36 18.9874C172.167 18.5808 171.963 18.0807 171.746 17.487C171.677 17.9531 171.566 18.4669 171.413 19.0284L170.432 22.3491L173.851 22.2012ZM179.509 22.0289L179.862 26.4136L178.633 26.4668L177.785 15.9232L180.683 15.7979C181.979 15.7418 182.955 15.948 183.612 16.4166C184.273 16.8849 184.644 17.6167 184.724 18.6119C184.836 20.0062 184.204 20.9791 182.827 21.5308L186.078 26.1448L184.625 26.2076L181.713 21.9336L179.509 22.0289ZM179.424 20.976L181.108 20.9031C181.975 20.8656 182.598 20.6675 182.975 20.3086C183.352 19.9449 183.513 19.4193 183.457 18.7318C183.401 18.0347 183.154 17.5412 182.714 17.2514C182.28 16.9614 181.608 16.8361 180.697 16.8755L179.1 16.9446L179.424 20.976Z" fill="black"/>
<g clip-path="url(#clip0_712_4677)">
<path d="M58.5047 26.992C58.878 31.4983 55.1059 35.3227 50.0797 35.5339C45.0534 35.7451 40.6761 32.2631 40.3029 27.7568C39.9296 23.2506 43.7016 19.4262 48.7279 19.215C53.7541 19.0038 58.1314 22.4857 58.5047 26.992Z" fill="#FFCC4D"/>
<path d="M49.5156 28.7344C47.6838 28.8113 46.4525 28.6711 44.9276 28.4723C44.5794 28.4273 43.9164 28.5147 43.9915 29.4214C44.1417 31.2346 46.6527 33.4034 49.8911 33.2674C53.129 33.1313 55.2651 30.7672 55.1149 28.954C55.0398 28.0473 54.3669 28.0156 54.0285 28.0898C52.5471 28.415 51.3475 28.6574 49.5156 28.7344Z" fill="#664500"/>
<path d="M45.0039 29.3788C45.0039 29.3788 46.5583 29.7683 49.5919 29.6409C52.6256 29.5134 54.1048 28.9964 54.1048 28.9964C54.1048 28.9964 53.2438 30.8521 49.7046 31.0008C46.1653 31.1495 45.0039 29.3788 45.0039 29.3788Z" fill="white"/>
<path d="M47.722 21.2647L45.4556 21.7243L44.1128 19.8461C43.9648 19.639 43.6874 19.5365 43.4259 19.5893C43.1629 19.6427 42.9713 19.8409 42.9497 20.0819L42.7531 22.2723L40.4867 22.7319C40.2198 22.7858 40.0271 22.99 40.0105 23.2359C39.9938 23.4817 40.1571 23.7132 40.4146 23.8089L42.545 24.5982L42.3475 26.7954C42.3256 27.0401 42.483 27.2736 42.7369 27.3744C42.8308 27.4114 42.9295 27.4268 43.026 27.4228C43.1914 27.4158 43.3499 27.3509 43.4626 27.2352L45.1045 25.5464L47.4694 26.4227C47.7259 26.5175 48.0171 26.4557 48.1903 26.2687C48.3636 26.0818 48.3789 25.8132 48.2291 25.6034L46.8816 23.7186L48.3614 22.1972C48.54 22.0136 48.5619 21.7443 48.4164 21.5312C48.2698 21.3181 47.9875 21.2112 47.722 21.2647ZM50.066 21.1662L52.3926 21.4328L53.416 19.4552C53.5288 19.2371 53.7874 19.1121 54.0558 19.1427C54.3252 19.1736 54.5482 19.3544 54.6095 19.592L55.1663 21.7507L57.4928 22.0173C57.7674 22.0485 57.9923 22.2346 58.049 22.4774C58.1056 22.7202 57.9822 22.9638 57.7422 23.0803L55.757 24.0426L56.3158 26.2079C56.3779 26.4492 56.2602 26.6943 56.0247 26.8156C55.9376 26.8602 55.8421 26.8838 55.7456 26.8878C55.5802 26.8948 55.4121 26.8436 55.2811 26.7381L53.3717 25.1986L51.1679 26.2669C50.9289 26.3825 50.6295 26.3454 50.4266 26.1743C50.2237 26.0031 50.1641 25.7377 50.2783 25.5169L51.3052 23.5327L49.5845 22.1458C49.3768 21.9785 49.3107 21.7129 49.42 21.489C49.5308 21.2651 49.7935 21.1354 50.066 21.1662Z" fill="#E95F28"/>
</g>
<defs>
<clipPath id="clip0_712_4677">
<rect width="18.2141" height="16.3692" fill="white" transform="matrix(0.999325 -0.0419913 0.0825823 0.996925 39.627 19.5974)"/>
</clipPath>
</defs>
</svg>
