<svg width="19" height="18" viewBox="0 0 19 18" fill="none" xmlns="http://www.w3.org/2000/svg">
<path d="M9.02447 0.463587C9.17415 0.00293183 9.82585 0.00293112 9.97553 0.463586L11.7451 5.90989C11.8121 6.1159 12.0041 6.25538 12.2207 6.25538H17.9473C18.4316 6.25538 18.633 6.87519 18.2411 7.15989L13.6082 10.5259C13.433 10.6532 13.3597 10.8789 13.4266 11.0849L15.1962 16.5312C15.3459 16.9919 14.8187 17.3749 14.4268 17.0902L9.79389 13.7242C9.61865 13.5969 9.38135 13.5969 9.20611 13.7242L4.5732 17.0902C4.18135 17.3749 3.65411 16.9919 3.80378 16.5312L5.57339 11.0849C5.64033 10.8789 5.567 10.6532 5.39176 10.5259L0.758856 7.15989C0.366999 6.87519 0.568387 6.25538 1.05275 6.25538H6.77933C6.99594 6.25538 7.18792 6.1159 7.25486 5.90989L9.02447 0.463587Z" fill="#206FFD"/>
</svg>
